# This file uses centimeters as units for non-parametric coordinates.

mtllib Monitor_04.mtl
v -0.155467 1.094805 0.228013
v -0.054851 1.131120 0.191699
v -0.155467 1.532288 0.228013
v -0.054851 1.495973 0.191699
v -0.155467 1.532288 -0.209468
v -0.054851 1.495973 -0.173153
v -0.155467 1.094805 -0.209468
v -0.054851 1.131120 -0.173153
v 0.058071 1.131120 -0.173153
v 0.058071 1.131120 0.191699
v 0.058071 1.495973 -0.173153
v 0.058071 1.495973 0.191699
v 0.055466 1.700094 -0.687162
v 0.155467 1.790905 -0.800000
v 0.155467 0.790905 -0.800000
v 0.055466 0.881716 -0.687162
v 0.155467 0.863655 -0.726480
v 0.155467 1.718155 -0.726480
v 0.144816 1.718155 -0.726480
v 0.144816 0.863655 -0.726480
v 0.155467 0.790905 0.800000
v 0.055466 0.881716 0.687163
v 0.155467 0.863655 0.726481
v 0.144816 0.863655 0.726481
v 0.055466 1.700094 0.687163
v 0.144816 1.718155 0.726481
v 0.155467 1.718155 0.726481
v 0.155467 1.790905 0.800000
vt 0.495419 0.142512
vt 0.749122 0.608273
vt 0.589270 0.657563
vt 0.534872 0.812767
vt 0.638559 0.817415
vt 0.793763 0.871812
vt 0.798411 0.768125
vt 0.852808 0.612921
vt 0.693834 0.663575
vt 0.743110 0.712838
vt 0.693846 0.762113
vt 0.644571 0.712850
vt 0.749148 0.817401
vt 0.798397 0.657536
vt 0.589283 0.768152
vt 0.638533 0.608287
vt 0.852833 0.812728
vt 0.793724 0.553851
vt 0.593957 0.871837
vt 0.495398 0.002483
vt 0.593917 0.553876
vt 0.534847 0.612961
vt 0.355390 0.142533
vt 0.355368 0.002504
vt 0.305232 0.488156
vt 0.334304 0.536412
vt 0.014224 0.536446
vt 0.043286 0.488183
vt 0.823616 0.000018
vt 0.823580 0.280297
vt 0.821365 0.277856
vt 0.821552 0.002579
vt 0.000054 0.524305
vt 0.000000 0.012177
vt 0.043240 0.048290
vt 0.351818 0.000000
vt 0.354034 0.002440
vt 0.305187 0.048262
vt 0.999911 0.280240
vt 1.000000 0.553748
vt 0.534936 0.553900
vt 0.534847 0.280391
vt 0.351779 0.280274
vt 0.353844 0.277715
vt 0.348419 0.012141
vt 0.348473 0.524269
vt 0.014168 0.000033
vt 0.334248 0.000000
vt 0.045079 0.833238
vt 0.510143 0.833223
vt 0.510134 0.559715
vt 0.533665 0.536429
vt 0.533676 0.856508
vt 0.021548 0.856525
vt 0.021537 0.536445
vt 0.045070 0.559730
vn 0.339486 0.000000 0.940611
vn 0.339486 0.000000 0.940611
vn 0.339486 0.000000 0.940611
vn 0.339486 0.000000 0.940611
vn 0.339494 0.940608 0.000000
vn 0.339494 0.940608 0.000000
vn 0.339494 0.940608 0.000000
vn 0.339494 0.940608 0.000000
vn 0.339489 0.000000 -0.940610
vn 0.339489 0.000000 -0.940610
vn 0.339489 0.000000 -0.940610
vn 0.339489 0.000000 -0.940610
vn 0.339494 -0.940608 0.000000
vn 0.339494 -0.940608 0.000000
vn 0.339494 -0.940608 0.000000
vn 0.339494 -0.940608 0.000000
vn 1.000000 0.000000 0.000000
vn 1.000000 0.000000 0.000000
vn 1.000000 0.000000 0.000000
vn 1.000000 0.000000 0.000000
vn -1.000000 0.000000 0.000000
vn -1.000000 0.000000 0.000000
vn -1.000000 0.000000 0.000000
vn -1.000000 0.000000 0.000000
vn 0.000000 -1.000000 0.000000
vn 0.000000 -1.000000 0.000000
vn 0.000000 -1.000000 0.000000
vn 0.000000 -1.000000 0.000000
vn 0.000000 0.000000 -1.000000
vn 0.000000 0.000000 -1.000000
vn 0.000000 0.000000 -1.000000
vn 0.000000 0.000000 -1.000000
vn 0.000000 1.000000 0.000000
vn 0.000000 1.000000 0.000000
vn 0.000000 1.000000 0.000000
vn 0.000000 1.000000 0.000000
vn 0.000000 0.000000 1.000000
vn 0.000000 0.000000 1.000000
vn 0.000000 0.000000 1.000000
vn 0.000000 0.000000 1.000000
vn -0.748397 0.000000 -0.663251
vn -0.748397 0.000000 -0.663251
vn -0.748397 0.000000 -0.663252
vn -0.748397 0.000000 -0.663251
vn 0.000000 0.000000 1.000000
vn 0.000000 0.000000 1.000000
vn 0.000000 0.000000 1.000000
vn 0.000000 0.000000 1.000000
vn -0.672271 -0.740305 0.000000
vn -0.672271 -0.740305 0.000000
vn -0.672271 -0.740305 0.000000
vn -0.672271 -0.740305 0.000000
vn 0.000000 1.000000 0.000000
vn 0.000000 1.000000 0.000000
vn 0.000000 1.000000 0.000000
vn 0.000000 1.000000 0.000000
vn -1.000000 0.000000 0.000000
vn -1.000000 0.000000 0.000000
vn -1.000000 0.000000 0.000000
vn -1.000000 0.000000 0.000000
vn 1.000000 0.000000 0.000000
vn 1.000000 0.000000 0.000000
vn 1.000000 0.000000 0.000000
vn 1.000000 0.000000 0.000000
vn 0.000000 -1.000000 0.000000
vn 0.000000 -1.000000 0.000000
vn 0.000000 -1.000000 0.000000
vn 0.000000 -1.000000 0.000000
vn -0.672274 0.740303 0.000000
vn -0.672274 0.740303 0.000000
vn -0.672274 0.740303 0.000000
vn -0.672274 0.740303 0.000000
vn 0.000000 0.000000 -1.000000
vn 0.000000 0.000000 -1.000000
vn 0.000000 0.000000 -1.000000
vn 0.000000 0.000000 -1.000000
vn -0.748395 0.000000 0.663253
vn -0.748395 0.000000 0.663253
vn -0.748395 0.000000 0.663253
vn -0.748395 0.000000 0.663253
vn 1.000000 -0.000000 0.000000
vn 1.000000 -0.000000 0.000000
vn 1.000000 0.000000 0.000000
vn 1.000000 -0.000000 0.000000
vn 1.000000 -0.000000 0.000000
vn 1.000000 0.000000 0.000000
vn 1.000000 0.000000 0.000000
vn 1.000000 0.000000 0.000000
s off
usemtl initialShadingGroup
f 1/21/1 2/16/2 4/3/3 3/22/4
f 3/4/5 4/15/6 6/5/7 5/19/8
f 5/6/9 6/13/10 8/7/11 7/17/12
f 7/8/13 8/14/14 2/2/15 1/18/16
f 10/9/17 9/10/18 11/11/19 12/12/20
f 7/20/21 1/1/22 3/23/23 5/24/24
f 2/2/25 8/14/26 9/10/27 10/9/28
f 8/7/29 6/13/30 11/11/31 9/10/32
f 6/5/33 4/15/34 12/12/35 11/11/36
f 4/3/37 2/16/38 10/9/39 12/12/40
f 13/25/41 14/26/42 15/27/43 16/28/44
f 17/29/45 18/30/46 19/31/47 20/32/48
f 16/28/49 15/33/50 21/34/51 22/35/52
f 23/36/53 17/29/54 20/32/55 24/37/56
f 16/28/57 22/35/58 25/38/59 13/25/60
f 20/39/61 19/40/62 26/41/63 24/42/64
f 18/30/65 27/43/66 26/44/67 19/31/68
f 25/38/69 28/45/70 14/46/71 13/25/72
f 27/43/73 23/36/74 24/37/75 26/44/76
f 22/35/77 21/47/78 28/48/79 25/38/80
s 1
f 27/49/81 18/50/82 17/51/83 15/52/84 14/53/85 28/54/86
f 21/55/87 15/52/84 17/51/83 23/56/88 27/49/81 28/54/86
