# This file uses centimeters as units for non-parametric coordinates.

mtllib Monitor_03.mtl
v 0.145389 1.740969 -0.781357
v 0.250384 1.790905 -0.800000
v 0.250384 0.790905 -0.800000
v 0.145389 0.840842 -0.781357
v 0.255379 0.844809 -0.737884
v 0.255379 1.737001 -0.737884
v 0.246980 1.737001 -0.737884
v 0.246980 0.844809 -0.737884
v 0.250384 0.790905 0.800000
v 0.145389 0.840842 0.781356
v 0.255379 0.844809 0.737884
v 0.246980 0.844809 0.737884
v 0.145389 1.740969 0.781356
v 0.246980 1.737001 0.737884
v 0.255379 1.737001 0.737884
v 0.250384 1.790905 0.800000
v 0.052287 0.948884 0.593783
v 0.052287 0.948884 -0.593783
v 0.052287 1.632926 0.593783
v 0.052287 1.632926 -0.593783
v -0.232841 0.686972 0.053576
v -0.184556 0.696814 0.039195
v -0.232841 0.819172 0.053576
v -0.184556 0.809331 0.039195
v -0.232841 0.819172 -0.078624
v -0.184556 0.809331 -0.064243
v -0.232841 0.686972 -0.078624
v -0.184556 0.696814 -0.064243
v -0.255378 0.571631 0.105231
v -0.216341 0.571631 0.105231
v -0.255378 0.981627 0.105231
v -0.216341 0.981627 0.105231
v -0.255378 0.981627 -0.130280
v -0.216341 0.981627 -0.130280
v -0.255378 0.571631 -0.130280
v -0.216341 0.571631 -0.130280
v -0.255378 0.994916 0.058129
v -0.255378 0.994916 -0.083178
v -0.216341 0.994916 0.058129
v -0.216341 0.994916 -0.083178
v -0.216341 0.558342 -0.083178
v -0.216341 0.558342 0.058129
v -0.255378 0.558342 -0.083178
v -0.255378 0.558342 0.058129
v -0.255378 1.004015 0.015737
v -0.255378 1.004015 -0.040786
v -0.216341 1.004015 0.015737
v -0.216341 1.004015 -0.040786
v -0.216341 0.549243 -0.040786
v -0.216341 0.549243 0.015737
v -0.255378 0.549243 -0.040786
v -0.255378 0.549243 0.015737
v -0.183061 0.743656 0.065426
v -0.146818 0.770639 0.083977
v -0.183061 0.837954 0.065426
v -0.146818 0.864938 0.083977
v -0.183061 0.837954 -0.090474
v -0.146818 0.864938 -0.105468
v -0.183061 0.743656 -0.090474
v -0.146818 0.770639 -0.105468
v -0.183061 0.982021 0.065426
v -0.146818 0.956335 0.083977
v -0.146818 0.956335 -0.106967
v -0.183061 0.982021 -0.090474
v -0.000989 1.245344 0.065426
v 0.053446 1.248520 0.083977
v 0.053446 1.248520 -0.104936
v -0.000989 1.245344 -0.090474
v -0.000989 1.344785 0.065426
v 0.053446 1.347961 0.083977
v 0.053446 1.347961 -0.104936
v -0.000989 1.344785 -0.090474
vt 0.550355 0.048501
vt 0.549334 0.000040
vt 0.514198 0.386187
vt 0.543317 0.348789
vt 0.494195 0.403562
vt 0.494138 0.690203
vt 0.704420 0.997388
vt 0.989826 0.385902
vt 0.000047 0.386095
vt 0.034260 0.337639
vt 0.226321 0.708007
vt 0.515715 0.386161
vt 0.483060 0.302964
vt 0.101538 0.302934
vt 0.101555 0.083177
vt 0.483077 0.083206
vt 0.228356 0.997982
vt 0.020005 0.690130
vt 0.041298 0.037352
vt 0.000000 0.707507
vt 0.515872 0.672790
vt 0.228080 0.709926
vt 0.989983 0.672531
vt 0.704142 0.709331
vt 0.226720 1.000000
vt 0.020044 0.403479
vt 0.706178 0.999309
vt 0.705778 0.707313
vt 0.035281 0.386101
vt 0.000025 0.032416
vt 0.514137 0.707588
vt 0.584590 0.353725
vt 0.584615 0.032461
vt 0.543342 0.037391
vt 0.035312 0.000000
vt 0.034283 0.048461
vt 0.000000 0.353680
vt 0.041274 0.348749
vt 0.549304 0.386141
vt 0.550333 0.337680
vt 0.945387 0.015827
vt 0.961575 0.018973
vt 0.961610 0.055120
vt 0.945427 0.058298
vt 0.940822 0.074133
vt 0.907592 0.074165
vt 0.902956 0.058338
vt 0.886768 0.055192
vt 0.886733 0.019045
vt 0.902916 0.015867
vt 0.907520 0.000032
vt 0.940751 0.000000
vt 0.886733 0.074165
vt 0.919964 0.074165
vt 0.919964 0.110313
vt 0.886733 0.110313
vt 0.626588 0.366198
vt 0.626569 0.353657
vt 0.758286 0.353462
vt 0.758305 0.366003
vt 0.820045 0.365912
vt 0.820026 0.353371
vt 0.835749 0.353348
vt 0.835768 0.365889
vt 0.967466 0.353153
vt 0.967484 0.365694
vt 0.549125 0.366312
vt 0.549107 0.353771
vt 0.564830 0.353748
vt 0.564848 0.366289
vt 0.869368 0.143177
vt 0.869348 0.002921
vt 0.884480 0.007188
vt 0.884500 0.138905
vt 0.611393 0.204906
vt 0.751648 0.204905
vt 0.747379 0.220038
vt 0.615662 0.220038
vt 0.774009 0.353439
vt 0.774028 0.365980
vt 0.808819 0.007199
vt 0.823951 0.002928
vt 0.823971 0.143183
vt 0.808839 0.138916
vt 0.610865 0.366221
vt 0.610847 0.353680
vt 0.578777 0.366268
vt 0.578759 0.353727
vt 0.596917 0.353700
vt 0.596936 0.366241
vt 0.837591 0.146104
vt 0.837569 0.000003
vt 0.855728 0.000000
vt 0.855750 0.146102
vt 0.747379 0.144376
vt 0.751648 0.159509
vt 0.611393 0.159510
vt 0.615662 0.144377
vt 0.608470 0.191287
vt 0.754571 0.191286
vt 0.787938 0.353418
vt 0.787957 0.365959
vt 0.806115 0.365933
vt 0.806097 0.353391
vt 0.608469 0.173129
vt 0.754571 0.173128
vt 0.802642 0.054668
vt 0.793148 0.067178
vt 0.762401 0.066404
vt 0.772377 0.053486
vt 0.926087 0.091670
vt 0.920125 0.074153
vt 0.980816 0.074146
vt 0.976172 0.091664
vt 0.770794 0.139290
vt 0.761042 0.127244
vt 0.791571 0.126414
vt 0.800903 0.138653
vt 0.976171 0.091673
vt 0.980987 0.106190
vt 0.920125 0.106186
vt 0.926085 0.091670
vt 0.805279 0.004374
vt 0.774923 0.002840
vt 0.732336 0.064756
vt 0.727944 0.049891
vt 0.731554 0.129581
vt 0.727252 0.144377
vt 0.728724 0.000000
vt 0.617703 0.067903
vt 0.624876 0.052414
vt 0.620266 0.125674
vt 0.627494 0.140484
vt 0.624908 0.001563
vt 0.586208 0.067192
vt 0.590853 0.048707
vt 0.589654 0.129892
vt 0.594764 0.148165
vt 0.593633 0.000007
vn -0.174830 0.000000 -0.984599
vn -0.174830 0.000000 -0.984599
vn -0.174830 0.000000 -0.984599
vn -0.174830 0.000000 -0.984599
vn 0.000000 0.000000 1.000000
vn 0.000000 0.000000 1.000000
vn 0.000000 0.000000 1.000000
vn 0.000000 0.000000 1.000000
vn -0.429508 -0.903063 0.000000
vn -0.429508 -0.903063 0.000000
vn -0.429508 -0.903063 0.000000
vn -0.429508 -0.903063 0.000000
vn 0.000000 1.000000 0.000000
vn 0.000000 1.000000 0.000000
vn 0.000000 1.000000 0.000000
vn 0.000000 1.000000 0.000000
vn -1.000000 0.000000 0.000000
vn -1.000000 0.000000 0.000000
vn -1.000000 0.000000 0.000000
vn -1.000000 0.000000 0.000000
vn 1.000000 0.000000 0.000000
vn 1.000000 0.000000 0.000000
vn 1.000000 0.000000 0.000000
vn 1.000000 0.000000 0.000000
vn 0.000000 -1.000000 0.000000
vn 0.000000 -1.000000 0.000000
vn 0.000000 -1.000000 0.000000
vn 0.000000 -1.000000 0.000000
vn -0.429508 0.903063 0.000000
vn -0.429508 0.903063 0.000000
vn -0.429508 0.903063 0.000000
vn -0.429508 0.903063 0.000000
vn 0.000000 0.000000 -1.000000
vn 0.000000 0.000000 -1.000000
vn 0.000000 0.000000 -1.000000
vn 0.000000 0.000000 -1.000000
vn -0.174832 0.000000 0.984598
vn -0.174832 0.000000 0.984598
vn -0.174832 0.000000 0.984598
vn -0.174832 0.000000 0.984598
vn 0.999998 0.001621 -0.000997
vn 0.997980 0.054107 -0.033287
vn 0.999998 -0.001621 0.000997
vn 0.999984 0.004848 -0.002983
vn 0.997980 0.054107 -0.033287
vn 0.999984 -0.004848 0.002983
vn 0.997980 -0.054107 0.033287
vn 0.997980 -0.054107 0.033287
vn -0.757540 -0.652789 0.000000
vn -0.757540 -0.652789 0.000000
vn -0.757540 -0.652789 0.000000
vn -0.757540 -0.652789 0.000000
vn -0.895730 0.000000 0.444598
vn -0.895730 0.000000 0.444598
vn -0.895730 0.000000 0.444598
vn -0.895730 0.000000 0.444598
vn -0.757540 0.652789 0.000000
vn -0.757540 0.652789 0.000000
vn -0.757540 0.652789 0.000000
vn -0.757540 0.652789 0.000000
vn -0.895730 0.000000 -0.444598
vn -0.895730 0.000000 -0.444598
vn -0.895730 0.000000 -0.444598
vn -0.895730 0.000000 -0.444598
vn 0.285453 0.000000 0.958393
vn 0.285453 0.000000 0.958393
vn 0.285453 0.000000 0.958393
vn 0.285453 0.000000 0.958393
vn 0.199715 0.979854 0.000000
vn 0.199715 0.979854 0.000000
vn 0.199715 0.979854 0.000000
vn 0.199715 0.979854 0.000000
vn 0.285448 0.000000 -0.958394
vn 0.285448 0.000000 -0.958394
vn 0.285448 0.000000 -0.958394
vn 0.285448 0.000000 -0.958394
vn 0.199717 -0.979854 0.000000
vn 0.199717 -0.979854 0.000000
vn 0.199717 -0.979854 0.000000
vn 0.199717 -0.979854 0.000000
vn 1.000000 0.000000 0.000000
vn 1.000000 0.000000 0.000000
vn 1.000000 0.000000 0.000000
vn 1.000000 0.000000 0.000000
vn -1.000000 0.000000 0.000000
vn -1.000000 0.000000 0.000000
vn -1.000000 0.000000 0.000000
vn -1.000000 0.000000 0.000000
vn 0.000000 0.000000 1.000000
vn 0.000000 0.000000 1.000000
vn 0.000000 0.000000 1.000000
vn 0.000000 0.000000 1.000000
vn 0.000000 0.970106 -0.242681
vn 0.000000 0.970106 -0.242681
vn 0.000000 0.962432 -0.271523
vn 0.000000 0.962432 -0.271523
vn 0.000000 0.000000 -1.000000
vn 0.000000 0.000000 -1.000000
vn 0.000000 0.000000 -1.000000
vn 0.000000 0.000000 -1.000000
vn 0.000000 -0.962433 -0.271521
vn 0.000000 -0.962433 -0.271521
vn 0.000000 -0.970107 -0.242679
vn 0.000000 -0.970107 -0.242679
vn 1.000000 0.000000 0.000000
vn 1.000000 0.000000 0.000000
vn 1.000000 0.000000 0.000000
vn 1.000000 0.000000 0.000000
vn -1.000000 0.000000 0.000000
vn -1.000000 0.000000 0.000000
vn -1.000000 0.000000 0.000000
vn -1.000000 0.000000 0.000000
vn 0.000000 0.970106 0.242681
vn 0.000000 0.970106 0.242681
vn 0.000000 0.962432 0.271523
vn 0.000000 0.962432 0.271523
vn 1.000000 0.000000 0.000000
vn 1.000000 0.000000 0.000000
vn 1.000000 0.000000 0.000000
vn 1.000000 0.000000 0.000000
vn 0.000000 -0.970107 0.242679
vn 0.000000 -0.970107 0.242679
vn 0.000000 -0.962433 0.271521
vn 0.000000 -0.962433 0.271521
vn 0.000000 -0.995796 -0.091603
vn 0.000000 -0.995796 -0.091603
vn 0.000000 -0.995796 0.091603
vn 0.000000 -0.995796 0.091603
vn 1.000000 0.000000 0.000000
vn 1.000000 0.000000 0.000000
vn 1.000000 0.000000 0.000000
vn 1.000000 0.000000 0.000000
vn -1.000000 0.000000 0.000000
vn -1.000000 0.000000 0.000000
vn -1.000000 0.000000 0.000000
vn -1.000000 0.000000 0.000000
vn -1.000000 0.000000 0.000000
vn -1.000000 0.000000 0.000000
vn 0.000000 0.995796 0.091603
vn 0.000000 0.995796 0.091603
vn 0.000000 0.995796 -0.091603
vn 0.000000 0.995796 -0.091603
vn -1.000000 0.000000 0.000000
vn -1.000000 0.000000 0.000000
vn -0.455650 0.000000 0.890159
vn -0.455650 0.000000 0.890159
vn -0.455650 0.000000 0.890159
vn -0.455650 0.000000 0.890159
vn -0.058249 0.998302 0.000000
vn -0.058249 0.998302 0.000000
vn -0.058249 0.998302 0.000000
vn -0.058249 0.998302 0.000000
vn -0.382280 0.000000 -0.924047
vn -0.382280 0.000000 -0.924047
vn -0.382280 0.000000 -0.924047
vn -0.382280 0.000000 -0.924047
vn 0.597202 -0.802091 0.000000
vn 0.597202 -0.802091 0.000000
vn 0.597202 -0.802091 0.000000
vn 0.597202 -0.802091 0.000000
vn 1.000000 0.000000 0.000000
vn 1.000000 0.000000 0.000000
vn 1.000000 0.000000 0.000000
vn 1.000000 0.000000 0.000000
vn -1.000000 0.000000 0.000000
vn -1.000000 0.000000 0.000000
vn -1.000000 0.000000 0.000000
vn -1.000000 0.000000 0.000000
vn -0.455654 0.000000 0.890157
vn -0.455654 0.000000 0.890157
vn -0.455654 0.000000 0.890157
vn -0.455654 0.000000 0.890157
vn 1.000000 0.000000 0.000000
vn 1.000000 0.000000 0.000000
vn 1.000000 0.000000 0.000000
vn 1.000000 0.000000 0.000000
vn -0.398326 -0.005839 -0.917226
vn -0.398326 -0.005839 -0.917226
vn -0.398326 -0.005839 -0.917226
vn -0.398326 -0.005839 -0.917226
vn -1.000000 0.000000 0.000000
vn -1.000000 0.000000 0.000000
vn -1.000000 0.000000 0.000000
vn -1.000000 0.000000 0.000000
vn -0.321717 0.221424 0.920581
vn -0.321717 0.221424 0.920581
vn -0.321717 0.221424 0.920581
vn -0.321717 0.221424 0.920581
vn 0.824850 -0.565351 0.000000
vn 0.824850 -0.565351 0.000000
vn 0.824850 -0.565351 0.000000
vn 0.824850 -0.565351 0.000000
vn -0.274021 0.192042 -0.942355
vn -0.274021 0.192042 -0.942355
vn -0.274021 0.192042 -0.942355
vn -0.274021 0.192042 -0.942355
vn -0.822527 0.568726 0.000000
vn -0.822527 0.568726 0.000000
vn -0.822527 0.568726 0.000000
vn -0.822527 0.568726 0.000000
vn -0.322584 0.000000 0.946541
vn -0.322584 0.000000 0.946541
vn -0.322584 0.000000 0.946541
vn -0.322584 0.000000 0.946541
vn 1.000000 0.000000 0.000000
vn 1.000000 0.000000 0.000000
vn 1.000000 0.000000 0.000000
vn 1.000000 0.000000 0.000000
vn -0.256761 0.000000 -0.966475
vn -0.256761 0.000000 -0.966475
vn -0.256761 0.000000 -0.966475
vn -0.256761 0.000000 -0.966475
vn -1.000000 0.000000 0.000000
vn -1.000000 0.000000 0.000000
vn -1.000000 0.000000 0.000000
vn -1.000000 0.000000 0.000000
s off
usemtl initialShadingGroup
f 1/1/1 2/33/2 3/32/3 4/40/4
f 5/28/5 6/27/6 7/7/7 8/24/8
f 4/4/9 3/39/10 9/29/11 10/38/12
f 11/11/13 5/28/14 8/24/15 12/22/16
f 18/13/17 17/14/18 19/15/19 20/16/20
f 8/8/21 7/23/22 14/21/23 12/12/24
f 6/27/25 15/25/26 14/17/27 7/7/28
f 13/19/29 16/35/30 2/2/31 1/34/32
f 15/25/33 11/11/34 12/22/35 14/17/36
f 10/10/37 9/37/38 16/30/39 13/36/40
s 1
f 15/18/41 6/6/42 5/5/43 3/3/44 2/31/45 16/20/46
f 9/9/47 3/3/44 5/5/43 11/26/48 15/18/41 16/20/46
s off
f 4/4/49 10/38/50 17/14/51 18/13/52
f 10/10/53 13/36/54 19/15/55 17/14/56
f 13/19/57 1/34/58 20/16/59 19/15/60
f 1/1/61 4/40/62 18/13/63 20/16/64
f 21/41/65 22/42/66 24/43/67 23/44/68
f 23/44/69 24/45/70 26/46/71 25/47/72
f 25/47/73 26/48/74 28/49/75 27/50/76
f 27/50/77 28/51/78 22/52/79 21/41/80
f 22/53/81 28/54/82 26/55/83 24/56/84
f 27/50/85 21/41/86 23/44/87 25/47/88
f 29/57/89 30/58/90 32/59/91 31/60/92
s 2
f 38/61/93 40/62/94 34/63/95 33/64/96
s off
f 33/64/97 34/63/98 36/65/99 35/66/100
s 3
f 35/67/101 36/68/102 41/69/103 43/70/104
s 4
f 40/71/105 41/72/106 36/73/107 34/74/108
s 5
f 37/75/109 44/76/110 29/77/111 31/78/112
s 2
f 39/79/113 37/80/114 31/60/115 32/59/116
s 4
f 30/81/117 42/82/118 39/83/119 32/84/120
s 3
f 44/85/121 42/86/122 30/58/123 29/57/124
f 51/87/125 49/88/126 50/89/127 52/90/128
s 4
f 47/91/129 50/92/130 49/93/131 48/94/132
s 5
f 35/95/133 43/96/134 38/97/135 33/98/136
f 45/99/137 52/100/138 44/76/110 37/75/109
s 2
f 47/101/139 45/102/140 37/80/114 39/79/113
s 4
f 39/83/119 42/82/118 50/92/130 47/91/129
s 3
f 52/90/128 50/89/127 42/86/122 44/85/121
f 43/70/104 41/69/103 49/88/126 51/87/125
s 4
f 48/94/132 49/93/131 41/72/106 40/71/105
s 2
f 38/61/93 46/103/141 48/104/142 40/62/94
f 47/101/139 48/104/142 46/103/141 45/102/140
s 5
f 46/105/143 51/106/144 52/100/138 45/99/137
f 38/97/135 43/96/134 51/106/144 46/105/143
s off
f 53/107/145 54/108/146 56/109/147 55/110/148
f 69/111/149 70/112/150 71/113/151 72/114/152
f 57/115/153 58/116/154 60/117/155 59/118/156
f 59/119/157 60/120/158 54/121/159 53/122/160
f 54/108/161 60/117/162 58/116/163 56/109/164
f 59/123/165 53/107/166 55/110/167 57/124/168
f 55/110/169 56/109/170 62/125/171 61/126/172
f 56/109/173 58/116/174 63/127/175 62/125/176
f 58/116/177 57/115/178 64/128/179 63/127/180
f 57/124/181 55/110/182 61/126/183 64/129/184
f 61/126/185 62/125/186 66/130/187 65/131/188
f 62/125/189 63/127/190 67/132/191 66/130/192
f 63/127/193 64/128/194 68/133/195 67/132/196
f 64/129/197 61/126/198 65/131/199 68/134/200
f 65/131/201 66/130/202 70/135/203 69/136/204
f 66/130/205 67/132/206 71/137/207 70/135/208
f 67/132/209 68/133/210 72/138/211 71/137/212
f 68/134/213 65/131/214 69/136/215 72/139/216
