# This file uses centimeters as units for non-parametric coordinates.

mtllib Table_01.mtl
v 3.565979 -0.433741 -1.561178
v 3.565979 -0.433741 -1.737884
v 3.565979 2.238854 -1.561178
v 3.565979 2.238854 -1.737884
v 3.412816 2.238854 -1.561178
v 3.412816 2.238854 -1.737884
v 3.412816 -0.433741 -1.561178
v 3.412816 -0.433741 -1.737884
v -3.292738 -0.433741 -1.561178
v -3.292738 -0.433741 -1.737884
v -3.292738 2.238854 -1.561178
v -3.292738 2.238854 -1.737884
v -3.445901 2.238854 -1.561178
v -3.445901 2.238854 -1.737884
v -3.445901 -0.433741 -1.561178
v -3.445901 -0.433741 -1.737884
v 3.565979 -0.433741 1.577761
v 3.565979 -0.433741 1.401056
v 3.565979 2.238854 1.577761
v 3.565979 2.238854 1.401056
v 3.412816 2.238854 1.577761
v 3.412816 2.238854 1.401056
v 3.412816 -0.433741 1.577761
v 3.412816 -0.433741 1.401056
v 3.743164 2.238738 1.812708
v 3.743164 2.238738 -1.812708
v 3.743164 2.365549 1.812708
v 3.743164 2.365549 -1.812708
v -3.520616 2.365549 1.812708
v -3.520616 2.365549 -1.812708
v -3.520616 2.238738 1.812708
v -3.520616 2.238738 -1.812708
v -3.292738 -0.433741 1.750542
v -3.292738 -0.433741 1.573837
v -3.292738 2.238854 1.750542
v -3.292738 2.238854 1.573837
v -3.445901 2.238854 1.750542
v -3.445901 2.238854 1.573837
v -3.445901 -0.433741 1.750542
v -3.445901 -0.433741 1.573837
vt 0.544898 0.001618
vt 0.560363 0.002210
vt 0.551411 0.236104
vt 0.535946 0.235513
vt 0.103650 0.063592
vt 0.078106 0.081782
vt 0.062340 0.059641
vt 0.087883 0.041452
vt 0.522542 0.235000
vt 0.507077 0.234408
vt 0.516030 0.000513
vt 0.531494 0.001105
vt 0.234173 0.045520
vt 0.265266 0.041452
vt 0.268791 0.068403
vt 0.237698 0.072470
vt 0.502625 0.000000
vt 0.493673 0.233895
vt 0.746500 0.001618
vt 0.761965 0.002210
vt 0.753012 0.236104
vt 0.737548 0.235512
vt 0.189566 0.063592
vt 0.164022 0.081782
vt 0.148256 0.059641
vt 0.173800 0.041452
vt 0.724144 0.234999
vt 0.708679 0.234407
vt 0.717631 0.000513
vt 0.733096 0.001105
vt 0.307815 0.045520
vt 0.338908 0.041452
vt 0.342434 0.068402
vt 0.311341 0.072470
vt 0.704227 0.000000
vt 0.695275 0.233894
vt 0.639499 0.001618
vt 0.654964 0.002210
vt 0.646012 0.236104
vt 0.630547 0.235513
vt 0.146608 0.063592
vt 0.121064 0.081782
vt 0.105298 0.059641
vt 0.130842 0.041452
vt 0.617143 0.235000
vt 0.601679 0.234408
vt 0.610631 0.000513
vt 0.626095 0.001105
vt 0.270994 0.045520
vt 0.302087 0.041452
vt 0.305613 0.068403
vt 0.274519 0.072470
vt 0.597227 0.000000
vt 0.588274 0.233895
vt 0.711973 0.973897
vt 0.710137 0.656388
vt 0.721243 0.656324
vt 0.723079 0.973833
vt 0.663731 0.285849
vt 0.667677 0.603338
vt 0.031565 0.611245
vt 0.027618 0.293755
vt 0.064716 0.977640
vt 0.062880 0.660131
vt 0.073986 0.660067
vt 0.075822 0.977576
vt 0.073921 0.648961
vt 0.710073 0.645282
vt 0.712037 0.985003
vt 0.075886 0.988682
vt 0.855567 0.001618
vt 0.871032 0.002210
vt 0.862080 0.236104
vt 0.846615 0.235512
vt 0.232524 0.063592
vt 0.206981 0.081782
vt 0.191214 0.059641
vt 0.216758 0.041452
vt 0.833211 0.234999
vt 0.817747 0.234407
vt 0.826699 0.000513
vt 0.842163 0.001105
vt 0.344636 0.045520
vt 0.375730 0.041452
vt 0.379255 0.068402
vt 0.348162 0.072470
vt 0.813295 0.000000
vt 0.804343 0.233894
vn 1.000000 0.000000 0.000000
vn 1.000000 0.000000 0.000000
vn 1.000000 0.000000 0.000000
vn 1.000000 0.000000 0.000000
vn 0.000000 1.000000 0.000000
vn 0.000000 1.000000 0.000000
vn 0.000000 1.000000 0.000000
vn 0.000000 1.000000 0.000000
vn -1.000000 0.000000 0.000000
vn -1.000000 0.000000 0.000000
vn -1.000000 0.000000 0.000000
vn -1.000000 0.000000 0.000000
vn 0.000000 -1.000000 0.000000
vn 0.000000 -1.000000 0.000000
vn 0.000000 -1.000000 0.000000
vn 0.000000 -1.000000 0.000000
vn 0.000000 0.000000 -1.000000
vn 0.000000 0.000000 -1.000000
vn 0.000000 0.000000 -1.000000
vn 0.000000 0.000000 -1.000000
vn 0.000000 0.000000 1.000000
vn 0.000000 0.000000 1.000000
vn 0.000000 0.000000 1.000000
vn 0.000000 0.000000 1.000000
vn 1.000000 0.000000 0.000000
vn 1.000000 0.000000 0.000000
vn 1.000000 0.000000 0.000000
vn 1.000000 0.000000 0.000000
vn 0.000000 1.000000 0.000000
vn 0.000000 1.000000 0.000000
vn 0.000000 1.000000 0.000000
vn 0.000000 1.000000 0.000000
vn -1.000000 0.000000 0.000000
vn -1.000000 0.000000 0.000000
vn -1.000000 0.000000 0.000000
vn -1.000000 0.000000 0.000000
vn 0.000000 -1.000000 0.000000
vn 0.000000 -1.000000 0.000000
vn 0.000000 -1.000000 0.000000
vn 0.000000 -1.000000 0.000000
vn 0.000000 0.000000 -1.000000
vn 0.000000 0.000000 -1.000000
vn 0.000000 0.000000 -1.000000
vn 0.000000 0.000000 -1.000000
vn 0.000000 0.000000 1.000000
vn 0.000000 0.000000 1.000000
vn 0.000000 0.000000 1.000000
vn 0.000000 0.000000 1.000000
vn 1.000000 0.000000 0.000000
vn 1.000000 0.000000 0.000000
vn 1.000000 0.000000 0.000000
vn 1.000000 0.000000 0.000000
vn 0.000000 1.000000 0.000000
vn 0.000000 1.000000 0.000000
vn 0.000000 1.000000 0.000000
vn 0.000000 1.000000 0.000000
vn -1.000000 0.000000 0.000000
vn -1.000000 0.000000 0.000000
vn -1.000000 0.000000 0.000000
vn -1.000000 0.000000 0.000000
vn 0.000000 -1.000000 0.000000
vn 0.000000 -1.000000 0.000000
vn 0.000000 -1.000000 0.000000
vn 0.000000 -1.000000 0.000000
vn 0.000000 0.000000 -1.000000
vn 0.000000 0.000000 -1.000000
vn 0.000000 0.000000 -1.000000
vn 0.000000 0.000000 -1.000000
vn 0.000000 0.000000 1.000000
vn 0.000000 0.000000 1.000000
vn 0.000000 0.000000 1.000000
vn 0.000000 0.000000 1.000000
vn 1.000000 0.000000 0.000000
vn 1.000000 0.000000 0.000000
vn 1.000000 0.000000 0.000000
vn 1.000000 0.000000 0.000000
vn 0.000000 1.000000 0.000000
vn 0.000000 1.000000 0.000000
vn 0.000000 1.000000 0.000000
vn 0.000000 1.000000 0.000000
vn -1.000000 0.000000 0.000000
vn -1.000000 0.000000 0.000000
vn -1.000000 0.000000 0.000000
vn -1.000000 0.000000 0.000000
vn 0.000000 -1.000000 0.000000
vn 0.000000 -1.000000 0.000000
vn 0.000000 -1.000000 0.000000
vn 0.000000 -1.000000 0.000000
vn 0.000000 0.000000 -1.000000
vn 0.000000 0.000000 -1.000000
vn 0.000000 0.000000 -1.000000
vn 0.000000 0.000000 -1.000000
vn 0.000000 0.000000 1.000000
vn 0.000000 0.000000 1.000000
vn 0.000000 0.000000 1.000000
vn 0.000000 0.000000 1.000000
vn 1.000000 0.000000 0.000000
vn 1.000000 0.000000 0.000000
vn 1.000000 0.000000 0.000000
vn 1.000000 0.000000 0.000000
vn 0.000000 1.000000 0.000000
vn 0.000000 1.000000 0.000000
vn 0.000000 1.000000 0.000000
vn 0.000000 1.000000 0.000000
vn -1.000000 0.000000 0.000000
vn -1.000000 0.000000 0.000000
vn -1.000000 0.000000 0.000000
vn -1.000000 0.000000 0.000000
vn 0.000000 -1.000000 0.000000
vn 0.000000 -1.000000 0.000000
vn 0.000000 -1.000000 0.000000
vn 0.000000 -1.000000 0.000000
vn 0.000000 0.000000 -1.000000
vn 0.000000 0.000000 -1.000000
vn 0.000000 0.000000 -1.000000
vn 0.000000 0.000000 -1.000000
vn 0.000000 0.000000 1.000000
vn 0.000000 0.000000 1.000000
vn 0.000000 0.000000 1.000000
vn 0.000000 0.000000 1.000000
s off
usemtl initialShadingGroup
f 1/1/1 2/2/2 4/3/3 3/4/4
f 3/5/5 4/6/6 6/7/7 5/8/8
f 5/9/9 6/10/10 8/11/11 7/12/12
f 7/13/13 8/14/14 2/15/15 1/16/16
f 2/17/17 8/11/18 6/10/19 4/18/20
f 7/12/21 1/1/22 3/4/23 5/9/24
f 9/19/25 10/20/26 12/21/27 11/22/28
f 11/23/29 12/24/30 14/25/31 13/26/32
f 13/27/33 14/28/34 16/29/35 15/30/36
f 15/31/37 16/32/38 10/33/39 9/34/40
f 10/35/41 16/29/42 14/28/43 12/36/44
f 15/30/45 9/19/46 11/22/47 13/27/48
f 17/37/49 18/38/50 20/39/51 19/40/52
f 19/41/53 20/42/54 22/43/55 21/44/56
f 21/45/57 22/46/58 24/47/59 23/48/60
f 23/49/61 24/50/62 18/51/63 17/52/64
f 18/53/65 24/47/66 22/46/67 20/54/68
f 23/48/69 17/37/70 19/40/71 21/45/72
f 25/55/73 26/56/74 28/57/75 27/58/76
f 27/59/77 28/60/78 30/61/79 29/62/80
f 29/63/81 30/64/82 32/65/83 31/66/84
f 31/66/85 32/65/86 26/56/87 25/55/88
f 26/56/89 32/65/90 30/67/91 28/68/92
f 31/66/93 25/55/94 27/69/95 29/70/96
f 33/71/97 34/72/98 36/73/99 35/74/100
f 35/75/101 36/76/102 38/77/103 37/78/104
f 37/79/105 38/80/106 40/81/107 39/82/108
f 39/83/109 40/84/110 34/85/111 33/86/112
f 34/87/113 40/81/114 38/80/115 36/88/116
f 39/82/117 33/71/118 35/74/119 37/79/120
